<svg width="180" height="80" xmlns="http://www.w3.org/2000/svg">
 <!-- Created with Method Draw - http://github.com/duopixel/Method-Draw/ -->

 <g>
  <title>background</title>
  <rect fill="#fff" id="canvas_background" height="82" width="182" y="-1" x="-1"/>
  <g display="none" overflow="visible" y="0" x="0" height="100%" width="100%" id="canvasGrid">
   <rect fill="url(#gridpattern)" stroke-width="0" y="1" x="1" height="480" width="640"/>
  </g>
 </g>
 <g>
  <title>Layer 1</title>
  <text font-weight="bold" xml:space="preserve" text-anchor="start" font-family="Helvetica, Arial, sans-serif" font-size="36" id="svg_1" y="59" x="13.99219" stroke-width="0" stroke="#000" fill="#64b5f6">BELEGO</text>
  <g stroke="null" id="svg_49">
   <g stroke="null" transform="matrix(0.06210869760252535,0,0,0.046874998952262104,108.98223046207386,137.80000284314156) " id="svg_6">
    <path stroke="null" id="svg_7" fill="#6D4D42" d="m-101,-2422.90562l-9.861,-1.782l11.488,-8.575c3.419,-2.553 4.123,-7.394 1.569,-10.814c-2.553,-3.42 -7.393,-4.122 -10.813,-1.57l-12.555,9.372l0.579,-11.338c0.217,-4.262 -3.061,-7.893 -7.321,-8.111c-4.275,-0.221 -7.892,3.061 -8.111,7.322l-1.233,24.135l-62.928,46.974c-3.419,2.553 -4.123,7.394 -1.569,10.814c1.517,2.033 3.842,3.105 6.198,3.105c1.608,0 3.229,-0.5 4.615,-1.535l63.146,-47.137l24.049,4.346c0.465,0.084 0.927,0.125 1.384,0.125c3.665,0 6.92,-2.619 7.595,-6.353c0.756,-4.2 -2.033,-8.218 -6.232,-8.978z"/>
    <path stroke="null" id="svg_8" fill="#6D4D42" d="m-411.073,-2377.29162l-62.928,-46.974l-1.233,-24.135c-0.218,-4.262 -3.869,-7.545 -8.111,-7.321c-4.262,0.217 -7.539,3.849 -7.322,8.111l0.579,11.338l-12.555,-9.372c-3.419,-2.553 -8.262,-1.849 -10.813,1.57c-2.554,3.419 -1.85,8.261 1.569,10.814l11.488,8.575l-9.861,1.782c-4.199,0.759 -6.988,4.778 -6.23,8.977c0.675,3.734 3.928,6.353 7.594,6.353c0.455,0 0.919,-0.041 1.384,-0.125l24.049,-4.346l63.146,47.137c1.388,1.035 3.008,1.535 4.615,1.535c2.355,0 4.681,-1.073 6.198,-3.105c2.553,-3.421 1.85,-8.261 -1.569,-10.814z"/>
   </g>
   <g stroke="null" transform="matrix(0.06210869760252535,0,0,0.046874998952262104,108.98223046207386,137.80000284314156) " id="svg_9">
    <path stroke="null" id="svg_10" fill="#61443B" d="m-158.845,-2408.15262l-41.342,30.861c-3.419,2.553 -4.123,7.394 -1.569,10.814c1.517,2.033 3.842,3.105 6.198,3.105c1.608,0 3.229,-0.5 4.615,-1.535l38.934,-29.062c-2.06,-4.851 -4.343,-9.582 -6.836,-14.183z"/>
    <path stroke="null" id="svg_11" fill="#61443B" d="m-411.073,-2377.29162l-41.342,-30.861c-2.492,4.602 -4.776,9.332 -6.835,14.181l38.935,29.063c1.388,1.035 3.008,1.535 4.615,1.535c2.355,0 4.681,-1.073 6.198,-3.105c2.551,-3.42 1.848,-8.26 -1.571,-10.813z"/>
   </g>
   <circle stroke="null" transform="matrix(0.06210869760252535,0,0,0.046874998952262104,108.98223046207386,137.80000284314156) " id="svg_12" fill="#EEEEEC" r="135.901" cy="-2328.96878" cx="-305.63006"/>
   <path stroke="null" id="svg_13" fill="#D4D3D3" d="m84.75834,28.6295c0,-3.10552 2.94451,-5.69152 6.84121,-6.25575c-0.51799,-0.075 -1.05256,-0.11475 -1.59961,-0.11475c-4.66175,0 -8.44082,2.8522 -8.44082,6.3705s3.77907,6.3705 8.44082,6.3705c0.54699,0 1.08156,-0.03975 1.59961,-0.11475c-3.8967,-0.56419 -6.84121,-3.15023 -6.84121,-6.25575z"/>
   <path stroke="null" id="svg_14" fill="#117D66" d="m82.28424,24.0575l2.22796,-1.67175l2.42988,1.84462l-2.22796,1.67175c-0.21396,0.16055 -0.55985,0.1598 -0.77257,-0.00169l-1.65961,-1.25981c-0.21266,-0.16153 -0.21167,-0.42258 0.0023,-0.58312z"/>
   <path stroke="null" id="svg_15" fill="#44C2A7" d="m94.98765,20.23442c1.89338,1.23741 2.26846,5.13183 -4.9877,5.13183s-6.88102,-3.89442 -4.9877,-5.13183l9.9754,0z"/>
   <path stroke="null" id="svg_16" fill="#1F967E" d="m86.93178,20.23442l-1.91947,0c-1.89332,1.23741 -2.26846,5.13183 4.9877,5.13183c0.33619,0 0.65574,-0.00844 0.95977,-0.02452c-6.25826,-0.33066 -5.83362,-3.92723 -4.028,-5.10731z"/>
   <circle stroke="null" transform="matrix(0.06210869760252535,0,0,0.046874998952262104,108.98223046207386,137.80000284314156) " id="svg_17" fill="#EEEEEC" r="84.341" cy="-2533.90178" cx="-305.63006"/>
   <path stroke="null" id="svg_18" fill="#D4D3D3" d="m86.04132,19.02355c0,-2.01984 2.00748,-3.68475 4.59847,-3.92311c-0.20987,-0.01931 -0.42308,-0.03042 -0.63984,-0.03042c-2.89309,0 -5.23831,1.77005 -5.23831,3.95348s2.34529,3.95348 5.23831,3.95348c0.21676,0 0.42998,-0.01111 0.63984,-0.03042c-2.59099,-0.23827 -4.59847,-1.90317 -4.59847,-3.92302z"/>
   <g stroke="null" transform="matrix(0.06210869760252535,0,0,0.046874998952262104,108.98223046207386,137.80000284314156) " id="svg_19">
    <circle stroke="null" id="svg_20" fill="#E95552" r="15.597" cy="-2360.17262" cx="-305.63"/>
    <circle stroke="null" id="svg_21" fill="#E95552" r="15.597" cy="-2306.65462" cx="-305.63"/>
    <circle stroke="null" id="svg_22" fill="#E95552" r="15.597" cy="-2253.13662" cx="-305.63"/>
    <circle stroke="null" id="svg_23" fill="#E95552" r="17.987" cy="-2533.90162" cx="-305.63"/>
   </g>
   <g stroke="null" transform="matrix(0.06210869760252535,0,0,0.046874998952262104,108.98223046207386,137.80000284314156) " id="svg_24">
    <path stroke="null" id="svg_25" fill="#424342" d="m-305.63,-2477.94462c-12.614,0 -24.025,-5.568 -30.527,-14.895c-2.44,-3.501 -1.581,-8.317 1.919,-10.756c3.502,-2.442 8.317,-1.58 10.756,1.919c3.56,5.108 10.401,8.28 17.851,8.28c7.448,0 14.289,-3.172 17.85,-8.278c2.44,-3.498 7.257,-4.359 10.756,-1.917c3.5,2.441 4.359,7.257 1.917,10.757c-6.501,9.323 -17.911,14.89 -30.522,14.89z"/>
    <circle stroke="null" id="svg_26" fill="#424342" r="10.593" cy="-2553.13562" cx="-344.076"/>
    <circle stroke="null" id="svg_27" fill="#424342" r="10.593" cy="-2553.13562" cx="-267.184"/>
   </g>
   <polygon stroke="null" id="svg_28" fill="#E95552" points="89.8669662475586,12.538482666015625 85.9394760131836,13.426162719726562 86.2628173828125,15.07025146484375 89.99993896484375,15.85235595703125 93.47119903564453,15.07025146484375 93.79446411132812,13.426162719726562 "/>
   <polygon stroke="null" id="svg_29" fill="#D34D49" points="90.92428588867188,15.64410400390625 88.18236541748047,15.07025146484375 87.77700805664062,13.010848999023438 85.9394760131836,13.426162719726562 86.26131439208984,15.062469482421875 86.2628173828125,15.07025146484375 88.75431060791016,15.591644287109375 89.99993896484375,15.85235595703125 "/>
   <g stroke="null" transform="matrix(0.06210869760252535,0,0,0.046874998952262104,108.98223046207386,137.80000284314156) " id="svg_30">
    <rect stroke="null" id="svg_31" fill="#424342" height="33.374" width="211.105" y="-2618.24262" x="-411.182"/>
    <polygon stroke="null" id="svg_32" fill="#424342" points="-236.84584045410156,-2705.064779281616 -244.5386962890625,-2653.307210922241 -371.0081787109375,-2653.307210922241 -378.7012939453125,-2705.064779281616 "/>
   </g>
   <polygon stroke="null" id="svg_33" fill="#3A3B3A" points="87.85867309570312,13.426162719726562 87.38119506835938,11 85.46168518066406,11 85.9394760131836,13.426162719726562 "/>
   <g stroke="null" transform="matrix(0.06210869760252535,0,0,0.046874998952262104,108.98223046207386,137.80000284314156) " id="svg_34"/>
   <g stroke="null" transform="matrix(0.06210869760252535,0,0,0.046874998952262104,108.98223046207386,137.80000284314156) " id="svg_35"/>
   <g stroke="null" transform="matrix(0.06210869760252535,0,0,0.046874998952262104,108.98223046207386,137.80000284314156) " id="svg_36"/>
   <g stroke="null" transform="matrix(0.06210869760252535,0,0,0.046874998952262104,108.98223046207386,137.80000284314156) " id="svg_37"/>
   <g stroke="null" transform="matrix(0.06210869760252535,0,0,0.046874998952262104,108.98223046207386,137.80000284314156) " id="svg_38"/>
   <g stroke="null" transform="matrix(0.06210869760252535,0,0,0.046874998952262104,108.98223046207386,137.80000284314156) " id="svg_39"/>
   <g stroke="null" transform="matrix(0.06210869760252535,0,0,0.046874998952262104,108.98223046207386,137.80000284314156) " id="svg_40"/>
   <g stroke="null" transform="matrix(0.06210869760252535,0,0,0.046874998952262104,108.98223046207386,137.80000284314156) " id="svg_41"/>
   <g stroke="null" transform="matrix(0.06210869760252535,0,0,0.046874998952262104,108.98223046207386,137.80000284314156) " id="svg_42"/>
   <g stroke="null" transform="matrix(0.06210869760252535,0,0,0.046874998952262104,108.98223046207386,137.80000284314156) " id="svg_43"/>
   <g stroke="null" transform="matrix(0.06210869760252535,0,0,0.046874998952262104,108.98223046207386,137.80000284314156) " id="svg_44"/>
   <g stroke="null" transform="matrix(0.06210869760252535,0,0,0.046874998952262104,108.98223046207386,137.80000284314156) " id="svg_45"/>
   <g stroke="null" transform="matrix(0.06210869760252535,0,0,0.046874998952262104,108.98223046207386,137.80000284314156) " id="svg_46"/>
   <g stroke="null" transform="matrix(0.06210869760252535,0,0,0.046874998952262104,108.98223046207386,137.80000284314156) " id="svg_47"/>
   <g stroke="null" transform="matrix(0.06210869760252535,0,0,0.046874998952262104,108.98223046207386,137.80000284314156) " id="svg_48"/>
  </g>
 </g>
</svg>